# xmcd
#
# Track frame offsets: 
#        150
#        22580
#        45167
#        70097
#        93842
#        114615
#        135937
#        161087
#        178684
#        194640
#        226062
#        247505
#
# Disc length: 3491 seconds
#
# Revision: 4
# Processed by: cddbd v1.5.2PL0 Copyright (c) Steve Scherf et al.
# Submitted via: ExactAudioCopy v1.1
#
DISCID=830da10c
DTITLE=Joe Ely - Twistin' In The Wind
DYEAR=1998
DGENRE=Country
TTITLE0=Up On The Ridge
TTITLE1=Roll Again
TTITLE2=It's A Little Like Love
TTITLE3=Twistin' In The Wind
TTITLE4=Queen Of Heaven
TTITLE5=Sister Soak The Beans
TTITLE6=I Will Lose My Life
TTITLE7=You're Workin' For The Man
TTITLE8=Inacho Mama
TTITLE9=Behind The Bamboo Shade
TTITLE10=Gulf Coast Blues
TTITLE11=If I Could Teach My Chihuahua To Sing
EXTD=LABEL =MCA Records Nashville\nID =MCAD-70031\nUPC =008817-0031
EXTD=22\nCOPYRIGHT =1998
EXTT0=
EXTT1=
EXTT2=
EXTT3=
EXTT4=
EXTT5=
EXTT6=
EXTT7=
EXTT8=
EXTT9=
EXTT10=
EXTT11=
PLAYORDER=
